# xmcd
#
# Track frame offsets:
#	150
#	22080
#	38358
#	54735
#	71947
#	91482
#	109893
#	128387
#	148009
#	164193
#
# Disc length: 2415 seconds
#
# Revision: 0
# Processed by: cddbd v1.5.2PL0 Copyright (c) Steve Scherf et al.
# Submitted via: dBpowerAMP V4.0
#
DISCID=90096d0a
DTITLE=Barney Bentall with Shari Ulrich and Tom Taylor - Live At Cates Hill 2008
DYEAR=2009
DGENRE=Country
TTITLE0=Shoulder Of The Road
TTITLE1=Driving My Weary Heart Home
TTITLE2=Just A Word
TTITLE3=I Never Meant To Make You Cry
TTITLE4=Find My Own Way Home
TTITLE5=Why Can't We Get Along
TTITLE6=Sending Out A Message
TTITLE7=I'll Be Your Only
TTITLE8=Living Water
TTITLE9=Flying
EXTD=
EXTT0=
EXTT1=
EXTT2=
EXTT3=
EXTT4=
EXTT5=
EXTT6=
EXTT7=
EXTT8=
EXTT9=
PLAYORDER=
